<?xml version="1.0" encoding="utf-8"?>
<!-- Generator: Adobe Illustrator 22.1.0, SVG Export Plug-In . SVG Version: 6.00 Build 0)  -->
<svg version="1.1" id="Layer_1" xmlns="http://www.w3.org/2000/svg" xmlns:xlink="http://www.w3.org/1999/xlink" x="0px" y="0px"
	 viewBox="0 0 980 580" style="enable-background:new 0 0 980 580;" xml:space="preserve">
<style type="text/css">
	.st0{fill:#EDEEEE;}
</style>
<path class="st0" d="M109.8,566.7c-49.5,0-89.7-40.3-89.7-89.7c0-48.3,38-87.4,86.3-89.7c-15-24.2-21.9-51.8-21.9-80.5
	c-1.2-86.3,69-155.3,154.2-155.3c20.7,0,40.3,3.5,59.8,11.5c25.3-88.6,107-149.6,200.2-149.6c105.8,0,194.4,78.2,207.1,184.1
	c84,2.3,151.9,70.2,151.9,155.3c0,12.7-1.2,24.2-4.6,35.7c5.8-1.2,11.5-1.2,17.3-1.2c49.5,0,89.7,40.3,89.7,89.7
	s-40.3,89.7-89.7,89.7H109.8z"/>
</svg>
