<?xml version="1.0" encoding="utf-8"?>
<!-- Generator: Adobe Illustrator 22.1.0, SVG Export Plug-In . SVG Version: 6.00 Build 0)  -->
<svg version="1.1" id="Layer_1" xmlns="http://www.w3.org/2000/svg" xmlns:xlink="http://www.w3.org/1999/xlink" x="0px" y="0px"
	 viewBox="0 0 256 256" style="enable-background:new 0 0 256 256;" xml:space="preserve">
<style type="text/css">
	.st0{fill:#A7C038;}
</style>
<path class="st0" d="M133.7,131.8v-40L180,73.1l-5-12.5l-41.3,17.5v-45h-12.5v45L78.7,60.6l-5,12.5L120,91.8v40l-57.5-23.8
	c0,1.3,0,2.5,1.3,5l5,12.5l51.3,21.3v97.5c0,3.8,2.5,6.3,6.3,6.3c3.8,0,6.3-2.5,6.3-6.3v-97.5l51.3-21.3l5-12.5c0-1.3,1.3-2.5,1.3-5
	L133.7,131.8z"/>
<path class="st0" d="M216.2,88.1l-28.8-70c-2.5-7.5-10-12.5-18.8-12.5H86.2c-8.8,0-15,5-18.8,12.5l-28.8,70c-5,11.3-5,23.8,0,35
	l28.8,70c2.5,7.5,10,12.5,18.8,12.5h21.3v-13.8H86.2c-2.5,0-5-1.3-5-3.8l-30-70c-3.8-8.8-3.8-17.5,0-25l28.8-70
	c1.3-2.5,3.8-3.8,5-3.8h83.8c2.5,0,5,1.3,5,3.8l30,70c3.8,7.5,3.8,16.3,0,23.8l-28.8,70c-1.3,2.5-2.5,3.8-5,3.8h-22.5v15h21.3
	c7.5,0,15-5,18.8-12.5l28.8-70C221.3,111.8,221.3,99.3,216.2,88.1"/>
</svg>
